<svg
  width="100"
  height="100"
  viewBox="0 0 100 100"
  xmlns="http://www.w3.org/2000/svg"
  fill="none"
>
  <!-- Cat's Head -->
  <path
    d="M20 60 C20 20, 80 20, 80 60 C80 90, 20 90, 20 60 Z"
    fill="none"
    stroke="#333333"
    stroke-width="3"
  />

  <!-- Cat's Ears -->
  <path
    d="M20 60 C0 40, 15 20, 30 35 Z"
    fill="non"
    stroke="#333333"
    stroke-width="3"
  />
  <path
    d="M80 60 C100 40, 85 20, 70 35 Z"
    fill=""
    stroke="#333333"
    stroke-width="3"
  />

  <!-- Cat's Eyes -->
  <circle cx="35" cy="55" r="5" fill="#333333" />
  <circle cx="65" cy="55" r="5" fill="#333333" />

  <!-- Cat's Nose -->
  <path
    d="M50 65 Q49 68, 50 70 Q51 68, 50 65 Z"
    fill="#333333"
  />

  <!-- Cat's Mouth -->
  <path
    d="M45 70 Q50 75, 55 70"
    stroke="#333333"
    stroke-width="2"
    fill="none"
  />

  <!-- Cat's Whiskers -->
  <path
    d="M15 65 Q25 65, 35 60"
    stroke="#333333"
    stroke-width="2"
    fill="none"
  />
  <path
    d="M15 70 Q25 70, 35 65"
    stroke="#333333"
    stroke-width="2"
    fill="none"
  />
  <path
    d="M65 60 Q75 65, 85 65"
    stroke="#333333"
    stroke-width="2"
    fill="none"
  />
  <path
    d="M65 65 Q75 70, 85 70"
    stroke="#333333"
    stroke-width="2"
    fill="none"
  />
</svg>
